<?xml version="1.0" standalone="no"?>
<!DOCTYPE svg PUBLIC "-//W3C//DTD SVG 20010904//EN"
 "http://www.w3.org/TR/2001/REC-SVG-20010904/DTD/svg10.dtd">
<svg version="1.0" xmlns="http://www.w3.org/2000/svg"
 width="484.000000pt" height="484.000000pt" viewBox="0 0 484.000000 484.000000"
 preserveAspectRatio="xMidYMid meet">
<metadata>
Created by potrace 1.14, written by Peter Selinger 2001-2017
</metadata>
<g transform="translate(0.000000,484.000000) scale(0.100000,-0.100000)"
fill="#000000" stroke="none">
<path d="M0 2420 l0 -2420 2415 0 2415 0 0 2420 0 2420 -2415 0 -2415 0 0
-2420z m2677 1653 c229 -52 408 -128 555 -234 349 -251 558 -627 623 -1123 30
-224 15 -544 -35 -761 -127 -551 -474 -942 -980 -1103 -231 -74 -368 -84
-1090 -80 l-575 3 -3 1663 -2 1663 707 -4 c675 -3 712 -4 800 -24z"/>
<path d="M1417 3883 c-4 -3 -7 -656 -7 -1451 l0 -1444 548 5 c597 5 617 7 803
67 183 60 327 148 465 285 213 213 343 498 389 855 46 358 -10 723 -155 1013
-66 130 -127 215 -231 318 -216 216 -463 322 -813 349 -137 11 -989 14 -999 3z"/>
</g>
</svg>
